<svg width="120" height="120" viewBox="0 0 39.119 39.119" xmlns="http://www.w3.org/2000/svg">
   <path
      d="M0 9.31a19.04 19.04 0 002.38 2.912c4.187 4.187 9.842 6.008 15.308 5.465.542-5.465-1.279-11.12-5.465-15.308A19.035 19.035 0 009.31 0 7.664 7.664 0 017.3 7.301 7.665 7.665 0 010 9.31zm39.119 20.498a19.067 19.067 0 00-2.38-2.913c-4.187-4.186-9.843-6.007-15.308-5.464-.543 5.465 1.278 11.121 5.465 15.308a19.035 19.035 0 002.912 2.38 7.665 7.665 0 012.01-7.302 7.666 7.666 0 017.3-2.009z"
      fill="#8c4aff" />
   <path
      d="M9.31 39.119a19.035 19.035 0 002.913-2.38c4.186-4.187 6.007-9.843 5.465-15.308-5.466-.543-11.121 1.278-15.308 5.465A19.067 19.067 0 000 29.808a7.665 7.665 0 017.301 2.01 7.665 7.665 0 012.009 7.3zM29.808 0a19.035 19.035 0 00-2.913 2.38c-4.186 4.187-6.006 9.842-5.464 15.308 5.465.542 11.121-1.279 15.307-5.466a19.04 19.04 0 002.38-2.912 7.664 7.664 0 01-7.3-2.009A7.666 7.666 0 0129.807 0z"
      fill="#4d1db5" />
</svg>